<svg width="14" height="10" viewBox="0 0 14 10" fill="none" xmlns="http://www.w3.org/2000/svg">
<path fill-rule="evenodd" clip-rule="evenodd" d="M14 4.99999C14 4.86738 13.9473 4.74021 13.8536 4.64644C13.7598 4.55267 13.6326 4.49999 13.5 4.49999H1.707L4.854 1.35399C4.90049 1.3075 4.93737 1.25231 4.96252 1.19157C4.98768 1.13083 5.00063 1.06573 5.00063 0.999991C5.00063 0.934247 4.98768 0.869147 4.96252 0.808407C4.93737 0.747668 4.90049 0.692479 4.854 0.645991C4.80751 0.599503 4.75232 0.562627 4.69158 0.537467C4.63085 0.512308 4.56574 0.499359 4.5 0.499359C4.43426 0.499359 4.36916 0.512308 4.30842 0.537467C4.24768 0.562627 4.19249 0.599503 4.146 0.645991L0.146001 4.64599C0.0994379 4.69244 0.0624951 4.74761 0.0372886 4.80836C0.0120822 4.8691 -0.000892639 4.93422 -0.000892639 4.99999C-0.000892639 5.06576 0.0120822 5.13088 0.0372886 5.19162C0.0624951 5.25237 0.0994379 5.30754 0.146001 5.35399L4.146 9.35399C4.19249 9.40048 4.24768 9.43736 4.30842 9.46251C4.36916 9.48767 4.43426 9.50062 4.5 9.50062C4.56574 9.50062 4.63085 9.48767 4.69158 9.46251C4.75232 9.43736 4.80751 9.40048 4.854 9.35399C4.90049 9.3075 4.93737 9.25231 4.96252 9.19157C4.98768 9.13083 5.00063 9.06573 5.00063 8.99999C5.00063 8.93425 4.98768 8.86915 4.96252 8.80841C4.93737 8.74767 4.90049 8.69248 4.854 8.64599L1.707 5.49999H13.5C13.6326 5.49999 13.7598 5.44731 13.8536 5.35354C13.9473 5.25978 14 5.1326 14 4.99999Z" fill="#444040"/>
</svg>
