<svg width="11" height="13" viewBox="0 0 11 13" fill="none" xmlns="http://www.w3.org/2000/svg">
<path d="M1.43937 1.89188L1.4375 3.21875V9.78375C1.4375 10.3225 1.65151 10.8391 2.03244 11.2201C2.41337 11.601 2.93003 11.815 3.46875 11.815H8.85375C8.75671 12.0892 8.57708 12.3266 8.33957 12.4945C8.10206 12.6623 7.81836 12.7525 7.5275 12.7525H3.46875C2.68139 12.7525 1.92628 12.4397 1.36953 11.883C0.812778 11.3262 0.5 10.5711 0.5 9.78375V3.21875C0.5 2.60625 0.891875 2.08438 1.43937 1.89188ZM9.09375 0.25C9.27842 0.25 9.46128 0.286374 9.6319 0.357044C9.80251 0.427715 9.95754 0.531299 10.0881 0.661881C10.2187 0.792463 10.3223 0.947487 10.393 1.1181C10.4636 1.28872 10.5 1.47158 10.5 1.65625V9.78125C10.5 9.96592 10.4636 10.1488 10.393 10.3194C10.3223 10.49 10.2187 10.645 10.0881 10.7756C9.95754 10.9062 9.80251 11.0098 9.6319 11.0805C9.46128 11.1511 9.27842 11.1875 9.09375 11.1875H3.46875C3.09579 11.1875 2.7381 11.0393 2.47438 10.7756C2.21066 10.5119 2.0625 10.1542 2.0625 9.78125V1.65625C2.0625 1.28329 2.21066 0.925604 2.47438 0.661881C2.7381 0.398158 3.09579 0.25 3.46875 0.25H9.09375ZM9.09375 1.1875H3.46875C3.34443 1.1875 3.2252 1.23689 3.13729 1.32479C3.04939 1.4127 3 1.53193 3 1.65625V9.78125C3 10.04 3.21 10.25 3.46875 10.25H9.09375C9.21807 10.25 9.3373 10.2006 9.42521 10.1127C9.51311 10.0248 9.5625 9.90557 9.5625 9.78125V1.65625C9.5625 1.53193 9.51311 1.4127 9.42521 1.32479C9.3373 1.23689 9.21807 1.1875 9.09375 1.1875Z" fill="#444040"/>
</svg>
