<svg width="15" height="15" viewBox="0 0 15 15" fill="none" xmlns="http://www.w3.org/2000/svg">
<path d="M3.2373 3.86133C4.26562 2.65137 5.78613 1.875 7.5 1.875C10.6084 1.875 13.125 4.3916 13.125 7.5H15C15 3.35742 11.6426 0 7.5 0C5.26758 0 3.27246 0.978516 1.90137 2.52539L0 0.624023V5.625H5.00098L3.2373 3.86133ZM11.7627 11.1387C10.7314 12.3486 9.21387 13.125 7.5 13.125C4.3916 13.125 1.875 10.6084 1.875 7.5H0C0 11.6426 3.35742 15 7.5 15C9.73242 15 11.7275 14.0215 13.0986 12.4746L15 14.376V9.375H9.99902L11.7627 11.1387ZM6.24902 7.5C6.24902 8.19141 6.80859 8.75098 7.5 8.75098C8.19141 8.75098 8.75098 8.19141 8.75098 7.5C8.75098 6.80859 8.19141 6.24902 7.5 6.24902C6.80859 6.24902 6.24902 6.80859 6.24902 7.5Z" fill="#444040"/>
</svg>
