<svg width="15" height="15" viewBox="0 0 15 15" fill="none" xmlns="http://www.w3.org/2000/svg">
<path d="M8.8393 2.57895C8.8393 1.99288 8.13912 1.68966 7.71162 2.09038L5.0668 4.57073C4.893 4.73359 4.66373 4.82419 4.42555 4.82413H2.81251C2.35075 4.82413 1.9079 5.00756 1.58139 5.33407C1.25488 5.66059 1.07144 6.10344 1.07144 6.5652V8.43591C1.07144 8.89767 1.25488 9.34052 1.58139 9.66704C1.9079 9.99355 2.35075 10.177 2.81251 10.177H4.42608C4.66394 10.177 4.89323 10.2681 5.0668 10.4304L7.71162 12.9086C8.13966 13.3093 8.8393 13.0061 8.8393 12.42V2.57895ZM5.61644 5.15681L8.03573 2.88752V12.1104L5.61644 9.84323C5.29377 9.541 4.8682 9.37284 4.42608 9.37288H2.81251C2.56387 9.37288 2.32542 9.2741 2.1496 9.09829C1.97379 8.92247 1.87501 8.68402 1.87501 8.43538V6.56466C1.87501 6.04716 2.29501 5.62716 2.81251 5.62716H4.42555C4.86799 5.62704 5.2938 5.45848 5.61644 5.15573V5.15681Z" fill="#444040"/>
<path d="M12.1618 2.81359C12.0905 2.73724 11.9922 2.69166 11.8879 2.68652C11.7835 2.68138 11.6813 2.71709 11.6028 2.78608C11.5244 2.85506 11.4759 2.95189 11.4676 3.05604C11.4593 3.16019 11.492 3.26346 11.5586 3.34395C12.5704 4.49172 13.1276 5.96992 13.125 7.50002C13.125 9.0927 12.5341 10.5466 11.5586 11.6556C11.5219 11.6949 11.4934 11.7411 11.4749 11.7916C11.4564 11.8421 11.4483 11.8958 11.4509 11.9495C11.4536 12.0033 11.467 12.0559 11.4903 12.1043C11.5137 12.1528 11.5465 12.196 11.5869 12.2315C11.6273 12.267 11.6744 12.2941 11.7254 12.311C11.7765 12.328 11.8304 12.3346 11.884 12.3303C11.9376 12.3261 11.9898 12.3111 12.0375 12.2863C12.0853 12.2615 12.1275 12.2273 12.1618 12.1859C13.3025 10.8917 13.9309 9.22519 13.9286 7.50002C13.9286 5.70431 13.2616 4.06341 12.1618 2.81359Z" fill="#444040"/>
<path d="M10.9034 4.44807C10.8718 4.40586 10.8321 4.3703 10.7867 4.34341C10.7413 4.31653 10.691 4.29885 10.6388 4.29139C10.5866 4.28393 10.5334 4.28683 10.4823 4.29992C10.4312 4.31302 10.3831 4.33605 10.3409 4.36771C10.2987 4.39937 10.2631 4.43903 10.2363 4.48443C10.2094 4.52983 10.1917 4.58008 10.1842 4.63232C10.1768 4.68455 10.1797 4.73774 10.1928 4.78885C10.2059 4.83997 10.2289 4.888 10.2606 4.93021C10.8174 5.6711 11.1177 6.57322 11.1161 7.50003C11.1161 8.46432 10.7979 9.3536 10.2606 10.0699C10.2289 10.1121 10.2059 10.1601 10.1928 10.2112C10.1797 10.2623 10.1768 10.3155 10.1842 10.3677C10.1917 10.42 10.2094 10.4702 10.2363 10.5156C10.2631 10.561 10.2987 10.6007 10.3409 10.6324C10.3831 10.664 10.4312 10.687 10.4823 10.7001C10.5334 10.7132 10.5866 10.7161 10.6388 10.7087C10.691 10.7012 10.7413 10.6835 10.7867 10.6566C10.8321 10.6298 10.8718 10.5942 10.9034 10.552C11.5646 9.67201 11.9213 8.60071 11.9197 7.50003C11.9213 6.39934 11.5646 5.32804 10.9034 4.44807Z" fill="#444040"/>
</svg>
