<svg width="15" height="15" viewBox="0 0 15 15" fill="none" xmlns="http://www.w3.org/2000/svg">
<path d="M10.3125 2.34372C10.3124 1.79382 10.5057 1.26139 10.8585 0.839609C11.2114 0.417824 11.7013 0.133533 12.2426 0.0364775C12.7838 -0.0605785 13.342 0.0357803 13.8194 0.308695C14.2968 0.58161 14.6631 1.0137 14.8541 1.52937C15.0451 2.04504 15.0487 2.61146 14.8642 3.12951C14.6798 3.64757 14.3191 4.08428 13.8452 4.36323C13.3713 4.64219 12.8144 4.74563 12.2719 4.65546C11.7294 4.56529 11.236 4.28724 10.8778 3.86997L4.57967 6.79497C4.72446 7.25382 4.72446 7.74612 4.57967 8.20497L10.8778 11.13C11.2564 10.6897 11.785 10.4056 12.3611 10.3328C12.9372 10.26 13.5199 10.4036 13.9961 10.7359C14.4723 11.0682 14.8082 11.5655 14.9387 12.1313C15.0692 12.6972 14.985 13.2913 14.7024 13.7986C14.4198 14.3059 13.9589 14.6903 13.4091 14.8771C12.8593 15.064 12.2597 15.0401 11.7265 14.81C11.1933 14.58 10.7645 14.1602 10.5232 13.632C10.2818 13.1039 10.2452 12.5049 10.4203 11.9512L4.12217 9.02622C3.81039 9.38957 3.39481 9.64872 2.93134 9.7688C2.46786 9.88889 1.97873 9.86415 1.52974 9.69792C1.08074 9.53169 0.693428 9.23194 0.419895 8.83899C0.146362 8.44605 -0.000267029 7.97875 -0.000267029 7.49997C-0.000267029 7.0212 0.146362 6.5539 0.419895 6.16095C0.693428 5.76801 1.08074 5.46826 1.52974 5.30202C1.97873 5.13579 2.46786 5.11106 2.93134 5.23114C3.39481 5.35123 3.81039 5.61038 4.12217 5.97372L10.4203 3.04872C10.3486 2.8206 10.3122 2.58285 10.3125 2.34372Z" fill="white"/>
</svg>
